<?xml version="1.0" encoding="UTF-8" standalone="no"?>
<!DOCTYPE svg PUBLIC "-//W3C//DTD SVG 1.1//EN"
 "http://www.w3.org/Graphics/SVG/1.1/DTD/svg11.dtd">
<!-- Generated by graphviz version 2.42.4 (0)
 -->
<!-- Pages: 1 -->
<svg width="296pt" height="998pt"
 viewBox="0.00 0.00 295.73 997.74" xmlns="http://www.w3.org/2000/svg" xmlns:xlink="http://www.w3.org/1999/xlink">
<g id="graph0" class="graph" transform="scale(1 1) rotate(0) translate(4 993.74)">
<polygon fill="white" stroke="transparent" points="-4,4 -4,-993.74 291.73,-993.74 291.73,4 -4,4"/>
<!-- SW1
Codes -->
<g id="node1" class="node">
<title>SW1
Codes</title>
<ellipse fill="none" stroke="black" cx="50.2" cy="-242.87" rx="42.35" ry="26.74"/>
<text text-anchor="middle" x="50.2" y="-246.67" font-family="Times,serif" font-size="14.00">SW1</text>
<text text-anchor="middle" x="50.2" y="-231.67" font-family="Times,serif" font-size="14.00">Codes</text>
</g>
<!-- Capability
RouteBridge -->
<g id="node2" class="node">
<title>Capability
RouteBridge</title>
<ellipse fill="none" stroke="black" cx="212.07" cy="-134.87" rx="75.82" ry="26.74"/>
<text text-anchor="middle" x="212.07" y="-138.67" font-family="Times,serif" font-size="14.00">Capability</text>
<text text-anchor="middle" x="212.07" y="-123.67" font-family="Times,serif" font-size="14.00">RouteBridge</text>
</g>
<!-- SW1
Codes&#45;&#45;Capability
RouteBridge -->
<g id="edge1" class="edge">
<title>SW1
Codes:R&#45;&#45;Capability
RouteBridge</title>
<path fill="none" stroke="black" d="M79.79,-223.56C106.73,-205.36 147.17,-178.04 176.04,-158.53"/>
</g>
<!-- SW1
IDLocal -->
<g id="node3" class="node">
<title>SW1
IDLocal</title>
<ellipse fill="none" stroke="black" cx="50.2" cy="-530.87" rx="50.41" ry="26.74"/>
<text text-anchor="middle" x="50.2" y="-534.67" font-family="Times,serif" font-size="14.00">SW1</text>
<text text-anchor="middle" x="50.2" y="-519.67" font-family="Times,serif" font-size="14.00">IDLocal</text>
</g>
<!-- Device
PortID -->
<g id="node4" class="node">
<title>Device
PortID</title>
<ellipse fill="none" stroke="black" cx="212.07" cy="-422.87" rx="45.92" ry="26.74"/>
<text text-anchor="middle" x="212.07" y="-426.67" font-family="Times,serif" font-size="14.00">Device</text>
<text text-anchor="middle" x="212.07" y="-411.67" font-family="Times,serif" font-size="14.00">PortID</text>
</g>
<!-- SW1
IDLocal&#45;&#45;Device
PortID -->
<g id="edge2" class="edge">
<title>SW1
IDLocal&#45;&#45;Device
PortID</title>
<path fill="none" stroke="black" d="M82.03,-510.05C110.7,-490.68 153.13,-462.01 181.42,-442.9"/>
</g>
<!-- SW1
Eth0/1 -->
<g id="node5" class="node">
<title>SW1
Eth0/1</title>
<ellipse fill="none" stroke="black" cx="50.2" cy="-602.87" rx="45.92" ry="26.74"/>
<text text-anchor="middle" x="50.2" y="-606.67" font-family="Times,serif" font-size="14.00">SW1</text>
<text text-anchor="middle" x="50.2" y="-591.67" font-family="Times,serif" font-size="14.00">Eth0/1</text>
</g>
<!-- R1
Eth0/0 -->
<g id="node6" class="node">
<title>R1
Eth0/0</title>
<ellipse fill="none" stroke="black" cx="212.07" cy="-602.87" rx="45.92" ry="26.74"/>
<text text-anchor="middle" x="212.07" y="-606.67" font-family="Times,serif" font-size="14.00">R1</text>
<text text-anchor="middle" x="212.07" y="-591.67" font-family="Times,serif" font-size="14.00">Eth0/0</text>
</g>
<!-- SW1
Eth0/1&#45;&#45;R1
Eth0/0 -->
<g id="edge3" class="edge">
<title>SW1
Eth0/1&#45;&#45;R1
Eth0/0</title>
<path fill="none" stroke="black" d="M95.31,-596.76C117.68,-595.9 144.76,-595.91 167.11,-596.77"/>
</g>
<!-- R1
Eth0/0&#45;&#45;SW1
Eth0/1 -->
<g id="edge9" class="edge">
<title>R1
Eth0/0&#45;&#45;SW1
Eth0/1</title>
<path fill="none" stroke="black" d="M167.11,-608.97C144.76,-609.83 117.68,-609.84 95.31,-608.98"/>
</g>
<!-- SW1
Eth0/2 -->
<g id="node7" class="node">
<title>SW1
Eth0/2</title>
<ellipse fill="none" stroke="black" cx="50.2" cy="-674.87" rx="45.92" ry="26.74"/>
<text text-anchor="middle" x="50.2" y="-678.67" font-family="Times,serif" font-size="14.00">SW1</text>
<text text-anchor="middle" x="50.2" y="-663.67" font-family="Times,serif" font-size="14.00">Eth0/2</text>
</g>
<!-- R2
Eth0/0 -->
<g id="node8" class="node">
<title>R2
Eth0/0</title>
<ellipse fill="none" stroke="black" cx="212.07" cy="-674.87" rx="45.92" ry="26.74"/>
<text text-anchor="middle" x="212.07" y="-678.67" font-family="Times,serif" font-size="14.00">R2</text>
<text text-anchor="middle" x="212.07" y="-663.67" font-family="Times,serif" font-size="14.00">Eth0/0</text>
</g>
<!-- SW1
Eth0/2&#45;&#45;R2
Eth0/0 -->
<g id="edge4" class="edge">
<title>SW1
Eth0/2&#45;&#45;R2
Eth0/0</title>
<path fill="none" stroke="black" d="M95.31,-668.76C117.68,-667.9 144.76,-667.91 167.11,-668.77"/>
</g>
<!-- R2
Eth0/0&#45;&#45;SW1
Eth0/2 -->
<g id="edge12" class="edge">
<title>R2
Eth0/0&#45;&#45;SW1
Eth0/2</title>
<path fill="none" stroke="black" d="M167.11,-680.97C144.76,-681.83 117.68,-681.84 95.31,-680.98"/>
</g>
<!-- SW1
Eth0/3 -->
<g id="node9" class="node">
<title>SW1
Eth0/3</title>
<ellipse fill="none" stroke="black" cx="50.2" cy="-746.87" rx="45.92" ry="26.74"/>
<text text-anchor="middle" x="50.2" y="-750.67" font-family="Times,serif" font-size="14.00">SW1</text>
<text text-anchor="middle" x="50.2" y="-735.67" font-family="Times,serif" font-size="14.00">Eth0/3</text>
</g>
<!-- R3
Eth0/0 -->
<g id="node10" class="node">
<title>R3
Eth0/0</title>
<ellipse fill="none" stroke="black" cx="212.07" cy="-746.87" rx="45.92" ry="26.74"/>
<text text-anchor="middle" x="212.07" y="-750.67" font-family="Times,serif" font-size="14.00">R3</text>
<text text-anchor="middle" x="212.07" y="-735.67" font-family="Times,serif" font-size="14.00">Eth0/0</text>
</g>
<!-- SW1
Eth0/3&#45;&#45;R3
Eth0/0 -->
<g id="edge5" class="edge">
<title>SW1
Eth0/3&#45;&#45;R3
Eth0/0</title>
<path fill="none" stroke="black" d="M95.31,-740.76C117.68,-739.9 144.76,-739.91 167.11,-740.77"/>
</g>
<!-- R3
Eth0/0&#45;&#45;SW1
Eth0/3 -->
<g id="edge17" class="edge">
<title>R3
Eth0/0&#45;&#45;SW1
Eth0/3</title>
<path fill="none" stroke="black" d="M167.11,-752.97C144.76,-753.83 117.68,-753.84 95.31,-752.98"/>
</g>
<!-- SW1
Eth0/5 -->
<g id="node11" class="node">
<title>SW1
Eth0/5</title>
<ellipse fill="none" stroke="black" cx="50.2" cy="-890.87" rx="45.92" ry="26.74"/>
<text text-anchor="middle" x="50.2" y="-894.67" font-family="Times,serif" font-size="14.00">SW1</text>
<text text-anchor="middle" x="50.2" y="-879.67" font-family="Times,serif" font-size="14.00">Eth0/5</text>
</g>
<!-- R6
Eth0/1 -->
<g id="node12" class="node">
<title>R6
Eth0/1</title>
<ellipse fill="none" stroke="black" cx="212.07" cy="-854.87" rx="45.92" ry="26.74"/>
<text text-anchor="middle" x="212.07" y="-858.67" font-family="Times,serif" font-size="14.00">R6</text>
<text text-anchor="middle" x="212.07" y="-843.67" font-family="Times,serif" font-size="14.00">Eth0/1</text>
</g>
<!-- SW1
Eth0/5&#45;&#45;R6
Eth0/1 -->
<g id="edge6" class="edge">
<title>SW1
Eth0/5&#45;&#45;R6
Eth0/1</title>
<path fill="none" stroke="black" d="M93.63,-881.32C116.94,-876.07 145.75,-869.58 169,-864.34"/>
</g>
<!-- R1
Codes -->
<g id="node13" class="node">
<title>R1
Codes</title>
<ellipse fill="none" stroke="black" cx="50.2" cy="-170.87" rx="42.35" ry="26.74"/>
<text text-anchor="middle" x="50.2" y="-174.67" font-family="Times,serif" font-size="14.00">R1</text>
<text text-anchor="middle" x="50.2" y="-159.67" font-family="Times,serif" font-size="14.00">Codes</text>
</g>
<!-- R1
Codes&#45;&#45;Capability
RouteBridge -->
<g id="edge7" class="edge">
<title>R1
Codes:R&#45;&#45;Capability
RouteBridge</title>
<path fill="none" stroke="black" d="M90.31,-162.06C107.6,-158.17 128.37,-153.49 147.77,-149.13"/>
</g>
<!-- R1
IDLocal -->
<g id="node14" class="node">
<title>R1
IDLocal</title>
<ellipse fill="none" stroke="black" cx="50.2" cy="-458.87" rx="50.41" ry="26.74"/>
<text text-anchor="middle" x="50.2" y="-462.67" font-family="Times,serif" font-size="14.00">R1</text>
<text text-anchor="middle" x="50.2" y="-447.67" font-family="Times,serif" font-size="14.00">IDLocal</text>
</g>
<!-- R1
IDLocal&#45;&#45;Device
PortID -->
<g id="edge8" class="edge">
<title>R1
IDLocal&#45;&#45;Device
PortID</title>
<path fill="none" stroke="black" d="M97.02,-448.55C119.62,-443.46 146.71,-437.36 168.81,-432.39"/>
</g>
<!-- R2
Codes -->
<g id="node15" class="node">
<title>R2
Codes</title>
<ellipse fill="none" stroke="black" cx="50.2" cy="-98.87" rx="42.35" ry="26.74"/>
<text text-anchor="middle" x="50.2" y="-102.67" font-family="Times,serif" font-size="14.00">R2</text>
<text text-anchor="middle" x="50.2" y="-87.67" font-family="Times,serif" font-size="14.00">Codes</text>
</g>
<!-- R2
Codes&#45;&#45;Capability
RouteBridge -->
<g id="edge10" class="edge">
<title>R2
Codes:R&#45;&#45;Capability
RouteBridge</title>
<path fill="none" stroke="black" d="M90.31,-107.68C107.6,-111.57 128.37,-116.25 147.77,-120.61"/>
</g>
<!-- R2
IDLocal -->
<g id="node16" class="node">
<title>R2
IDLocal</title>
<ellipse fill="none" stroke="black" cx="50.2" cy="-386.87" rx="50.41" ry="26.74"/>
<text text-anchor="middle" x="50.2" y="-390.67" font-family="Times,serif" font-size="14.00">R2</text>
<text text-anchor="middle" x="50.2" y="-375.67" font-family="Times,serif" font-size="14.00">IDLocal</text>
</g>
<!-- R2
IDLocal&#45;&#45;Device
PortID -->
<g id="edge11" class="edge">
<title>R2
IDLocal&#45;&#45;Device
PortID</title>
<path fill="none" stroke="black" d="M97.02,-397.19C119.62,-402.28 146.71,-408.38 168.81,-413.35"/>
</g>
<!-- R2
Eth0/1 -->
<g id="node17" class="node">
<title>R2
Eth0/1</title>
<ellipse fill="none" stroke="black" cx="50.2" cy="-962.87" rx="45.92" ry="26.74"/>
<text text-anchor="middle" x="50.2" y="-966.67" font-family="Times,serif" font-size="14.00">R2</text>
<text text-anchor="middle" x="50.2" y="-951.67" font-family="Times,serif" font-size="14.00">Eth0/1</text>
</g>
<!-- R5
Eth0/0 -->
<g id="node18" class="node">
<title>R5
Eth0/0</title>
<ellipse fill="none" stroke="black" cx="212.07" cy="-962.87" rx="45.92" ry="26.74"/>
<text text-anchor="middle" x="212.07" y="-966.67" font-family="Times,serif" font-size="14.00">R5</text>
<text text-anchor="middle" x="212.07" y="-951.67" font-family="Times,serif" font-size="14.00">Eth0/0</text>
</g>
<!-- R2
Eth0/1&#45;&#45;R5
Eth0/0 -->
<g id="edge13" class="edge">
<title>R2
Eth0/1&#45;&#45;R5
Eth0/0</title>
<path fill="none" stroke="black" d="M96.59,-962.87C118.28,-962.87 144.18,-962.87 165.85,-962.87"/>
</g>
<!-- R2
Eth0/2 -->
<g id="node19" class="node">
<title>R2
Eth0/2</title>
<ellipse fill="none" stroke="black" cx="50.2" cy="-818.87" rx="45.92" ry="26.74"/>
<text text-anchor="middle" x="50.2" y="-822.67" font-family="Times,serif" font-size="14.00">R2</text>
<text text-anchor="middle" x="50.2" y="-807.67" font-family="Times,serif" font-size="14.00">Eth0/2</text>
</g>
<!-- R2
Eth0/2&#45;&#45;R6
Eth0/1 -->
<g id="edge14" class="edge">
<title>R2
Eth0/2&#45;&#45;R6
Eth0/1</title>
<path fill="none" stroke="black" d="M93.63,-828.42C116.94,-833.67 145.75,-840.16 169,-845.4"/>
</g>
<!-- R3
Codes -->
<g id="node20" class="node">
<title>R3
Codes</title>
<ellipse fill="none" stroke="black" cx="50.2" cy="-26.87" rx="42.35" ry="26.74"/>
<text text-anchor="middle" x="50.2" y="-30.67" font-family="Times,serif" font-size="14.00">R3</text>
<text text-anchor="middle" x="50.2" y="-15.67" font-family="Times,serif" font-size="14.00">Codes</text>
</g>
<!-- R3
Codes&#45;&#45;Capability
RouteBridge -->
<g id="edge15" class="edge">
<title>R3
Codes:R&#45;&#45;Capability
RouteBridge</title>
<path fill="none" stroke="black" d="M79.79,-46.18C106.73,-64.38 147.17,-91.7 176.04,-111.21"/>
</g>
<!-- R3
IDLocal -->
<g id="node21" class="node">
<title>R3
IDLocal</title>
<ellipse fill="none" stroke="black" cx="50.2" cy="-314.87" rx="50.41" ry="26.74"/>
<text text-anchor="middle" x="50.2" y="-318.67" font-family="Times,serif" font-size="14.00">R3</text>
<text text-anchor="middle" x="50.2" y="-303.67" font-family="Times,serif" font-size="14.00">IDLocal</text>
</g>
<!-- R3
IDLocal&#45;&#45;Device
PortID -->
<g id="edge16" class="edge">
<title>R3
IDLocal&#45;&#45;Device
PortID</title>
<path fill="none" stroke="black" d="M82.03,-335.69C110.7,-355.06 153.13,-383.73 181.42,-402.84"/>
</g>
</g>
</svg>
